<?xml version="1.0" encoding="UTF-8" standalone="no"?>
<!-- Created with Inkscape (http://www.inkscape.org/) -->

<svg
   xmlns:dc="http://purl.org/dc/elements/1.1/"
   xmlns:cc="http://creativecommons.org/ns#"
   xmlns:rdf="http://www.w3.org/1999/02/22-rdf-syntax-ns#"
   xmlns:svg="http://www.w3.org/2000/svg"
   xmlns="http://www.w3.org/2000/svg"
   xmlns:sodipodi="http://sodipodi.sourceforge.net/DTD/sodipodi-0.dtd"
   xmlns:inkscape="http://www.inkscape.org/namespaces/inkscape"
   width="210mm"
   height="297mm"
   viewBox="0 0 210 297"
   version="1.1"
   id="svg8638"
   inkscape:version="0.92.4 (5da689c313, 2019-01-14)"
   sodipodi:docname="Tail.svg">
  <defs
     id="defs8632" />
  <sodipodi:namedview
     id="base"
     pagecolor="#ffffff"
     bordercolor="#666666"
     borderopacity="1.0"
     inkscape:pageopacity="0.0"
     inkscape:pageshadow="2"
     inkscape:zoom="0.35"
     inkscape:cx="400"
     inkscape:cy="560"
     inkscape:document-units="mm"
     inkscape:current-layer="layer1"
     showgrid="false"
     inkscape:window-width="1280"
     inkscape:window-height="961"
     inkscape:window-x="-8"
     inkscape:window-y="-8"
     inkscape:window-maximized="1" />
  <metadata
     id="metadata8635">
    <rdf:RDF>
      <cc:Work
         rdf:about="">
        <dc:format>image/svg+xml</dc:format>
        <dc:type
           rdf:resource="http://purl.org/dc/dcmitype/StillImage" />
        <dc:title></dc:title>
      </cc:Work>
    </rdf:RDF>
  </metadata>
  <g
     inkscape:label="Layer 1"
     inkscape:groupmode="layer"
     id="layer1">
    <g
       id="g4063"
       transform="matrix(0.35277777,0,0,-0.35277777,60.866565,104.05575)">
      <path
         d="M 0,0 H -1 C -1.276,0 -1.5,-0.224 -1.5,-0.5 -1.5,-0.776 -1.276,-1 -1,-1 h 1 c 0.276,0 0.5,0.224 0.5,0.5 C 0.5,-0.224 0.276,0 0,0"
         style="fill:#abacac;fill-opacity:1;fill-rule:nonzero;stroke:none"
         id="path4065"
         inkscape:connector-curvature="0" />
    </g>
    <g
       id="g4067"
       transform="matrix(0.35277777,0,0,-0.35277777,62.590238,104.05575)">
      <path
         d="m 0,0 h -1.955 c -0.276,0 -0.5,-0.224 -0.5,-0.5 0,-0.276 0.224,-0.5 0.5,-0.5 H 0 c 0.275,0 0.5,0.224 0.5,0.5 C 0.5,-0.224 0.275,0 0,0 M 4.885,0 H 2.931 c -0.277,0 -0.5,-0.224 -0.5,-0.5 0,-0.276 0.223,-0.5 0.5,-0.5 h 1.954 c 0.276,0 0.5,0.224 0.5,0.5 0,0.276 -0.224,0.5 -0.5,0.5 M 9.77,0 H 7.816 c -0.276,0 -0.5,-0.224 -0.5,-0.5 0,-0.276 0.224,-0.5 0.5,-0.5 H 9.77 c 0.276,0 0.5,0.224 0.5,0.5 0,0.276 -0.224,0.5 -0.5,0.5 m 4.886,0 h -1.954 c -0.276,0 -0.5,-0.224 -0.5,-0.5 0,-0.276 0.224,-0.5 0.5,-0.5 h 1.954 c 0.276,0 0.5,0.224 0.5,0.5 0,0.276 -0.224,0.5 -0.5,0.5 m 4.885,0 h -1.954 c -0.276,0 -0.5,-0.224 -0.5,-0.5 0,-0.276 0.224,-0.5 0.5,-0.5 h 1.954 c 0.278,0 0.5,0.224 0.5,0.5 0,0.276 -0.222,0.5 -0.5,0.5 m 4.886,0 h -1.953 c -0.277,0 -0.5,-0.224 -0.5,-0.5 0,-0.276 0.223,-0.5 0.5,-0.5 h 1.953 c 0.276,0 0.5,0.224 0.5,0.5 0,0.276 -0.224,0.5 -0.5,0.5 m 4.886,0 h -1.955 c -0.274,0 -0.5,-0.224 -0.5,-0.5 0,-0.276 0.226,-0.5 0.5,-0.5 h 1.955 c 0.276,0 0.5,0.224 0.5,0.5 0,0.276 -0.224,0.5 -0.5,0.5 m 4.885,0 h -1.954 c -0.276,0 -0.5,-0.224 -0.5,-0.5 0,-0.276 0.224,-0.5 0.5,-0.5 h 1.954 c 0.277,0 0.5,0.224 0.5,0.5 0,0.276 -0.223,0.5 -0.5,0.5 m 4.886,0 H 37.13 c -0.277,0 -0.5,-0.224 -0.5,-0.5 0,-0.276 0.223,-0.5 0.5,-0.5 h 1.954 c 0.276,0 0.5,0.224 0.5,0.5 0,0.276 -0.224,0.5 -0.5,0.5 m 4.886,0 h -1.954 c -0.277,0 -0.5,-0.224 -0.5,-0.5 0,-0.276 0.223,-0.5 0.5,-0.5 h 1.954 c 0.276,0 0.5,0.224 0.5,0.5 0,0.276 -0.224,0.5 -0.5,0.5 m 4.885,0 h -1.954 c -0.276,0 -0.5,-0.224 -0.5,-0.5 0,-0.276 0.224,-0.5 0.5,-0.5 h 1.954 c 0.276,0 0.5,0.224 0.5,0.5 0,0.276 -0.224,0.5 -0.5,0.5 m 4.886,0 h -1.954 c -0.276,0 -0.5,-0.224 -0.5,-0.5 0,-0.276 0.224,-0.5 0.5,-0.5 h 1.954 c 0.276,0 0.5,0.224 0.5,0.5 0,0.276 -0.224,0.5 -0.5,0.5 m 4.885,0 h -1.954 c -0.276,0 -0.5,-0.224 -0.5,-0.5 0,-0.276 0.224,-0.5 0.5,-0.5 h 1.954 c 0.277,0 0.5,0.224 0.5,0.5 0,0.276 -0.223,0.5 -0.5,0.5 m 4.887,0 h -1.955 c -0.276,0 -0.5,-0.224 -0.5,-0.5 0,-0.276 0.224,-0.5 0.5,-0.5 h 1.955 c 0.276,0 0.5,0.224 0.5,0.5 0,0.276 -0.224,0.5 -0.5,0.5 m 4.884,0 h -1.953 c -0.276,0 -0.5,-0.224 -0.5,-0.5 0,-0.276 0.224,-0.5 0.5,-0.5 h 1.953 c 0.277,0 0.5,0.224 0.5,0.5 0,0.276 -0.223,0.5 -0.5,0.5 m 4.886,0 h -1.954 c -0.276,0 -0.5,-0.224 -0.5,-0.5 0,-0.276 0.224,-0.5 0.5,-0.5 h 1.954 c 0.276,0 0.5,0.224 0.5,0.5 0,0.276 -0.224,0.5 -0.5,0.5 m 4.886,0 h -1.953 c -0.278,0 -0.5,-0.224 -0.5,-0.5 0,-0.276 0.222,-0.5 0.5,-0.5 h 1.953 c 0.276,0 0.5,0.224 0.5,0.5 0,0.276 -0.224,0.5 -0.5,0.5 m 4.887,0 H 81.1 c -0.276,0 -0.5,-0.224 -0.5,-0.5 0,-0.276 0.224,-0.5 0.5,-0.5 h 1.956 c 0.274,0 0.5,0.224 0.5,0.5 0,0.276 -0.226,0.5 -0.5,0.5 m 4.884,0 h -1.953 c -0.278,0 -0.5,-0.224 -0.5,-0.5 0,-0.276 0.222,-0.5 0.5,-0.5 h 1.953 c 0.276,0 0.5,0.224 0.5,0.5 0,0.276 -0.224,0.5 -0.5,0.5 m 4.886,0 h -1.955 c -0.276,0 -0.5,-0.224 -0.5,-0.5 0,-0.276 0.224,-0.5 0.5,-0.5 h 1.955 c 0.276,0 0.5,0.224 0.5,0.5 0,0.276 -0.224,0.5 -0.5,0.5"
         style="fill:#abacac;fill-opacity:1;fill-rule:nonzero;stroke:none"
         id="path4069"
         inkscape:connector-curvature="0" />
    </g>
    <g
       id="g4071"
       transform="matrix(0.35277777,0,0,-0.35277777,96.724308,104.05575)">
      <path
         d="M 0,0 H -1 C -1.276,0 -1.5,-0.224 -1.5,-0.5 -1.5,-0.776 -1.276,-1 -1,-1 h 1 c 0.276,0 0.5,0.224 0.5,0.5 C 0.5,-0.224 0.276,0 0,0"
         style="fill:#abacac;fill-opacity:1;fill-rule:nonzero;stroke:none"
         id="path4073"
         inkscape:connector-curvature="0" />
    </g>
  </g>
</svg>
